<?xml version="1.0" encoding="UTF-8"?>
<svg xmlns="http://www.w3.org/2000/svg" xmlns:xlink="http://www.w3.org/1999/xlink" width="100px" height="100px" viewBox="0 0 100 100" version="1.1">
<g id="surface1">
<path style=" stroke:none;fill-rule:nonzero;fill:rgb(9.411765%,10.588235%,13.333333%);fill-opacity:1;" d="M 87.730469 12.5 L 87.269531 12.5 C 86.222656 12.527344 85.394531 13.398438 85.417969 14.449219 L 85.417969 20.96875 C 85.394531 22.019531 86.222656 22.886719 87.269531 22.917969 L 87.730469 22.917969 C 88.777344 22.886719 89.605469 22.019531 89.582031 20.96875 L 89.582031 14.449219 C 89.605469 13.398438 88.777344 12.527344 87.730469 12.5 Z M 87.730469 12.5 "/>
<path style=" stroke:none;fill-rule:nonzero;fill:rgb(9.411765%,10.588235%,13.333333%);fill-opacity:1;" d="M 12.730469 12.5 L 12.269531 12.5 C 11.222656 12.527344 10.394531 13.398438 10.417969 14.449219 L 10.417969 20.96875 C 10.394531 22.019531 11.222656 22.886719 12.269531 22.917969 L 12.730469 22.917969 C 13.777344 22.886719 14.605469 22.019531 14.582031 20.96875 L 14.582031 14.449219 C 14.605469 13.398438 13.777344 12.527344 12.730469 12.5 Z M 12.730469 12.5 "/>
<path style=" stroke:none;fill-rule:nonzero;fill:rgb(9.411765%,10.588235%,13.333333%);fill-opacity:1;" d="M 90.625 15.625 L 90.625 19.792969 C 91.777344 19.792969 92.707031 18.859375 92.707031 17.707031 C 92.707031 16.558594 91.777344 15.625 90.625 15.625 Z M 90.625 15.625 "/>
<path style=" stroke:none;fill-rule:nonzero;fill:rgb(9.411765%,10.588235%,13.333333%);fill-opacity:1;" d="M 9.375 19.792969 L 9.375 15.625 C 8.222656 15.625 7.292969 16.558594 7.292969 17.707031 C 7.292969 18.859375 8.222656 19.792969 9.375 19.792969 Z M 9.375 19.792969 "/>
<path style=" stroke:none;fill-rule:nonzero;fill:rgb(9.411765%,10.588235%,13.333333%);fill-opacity:1;" d="M 82.519531 9.375 L 82.0625 9.375 C 80.949219 9.496094 80.128906 10.476562 80.207031 11.59375 L 80.207031 15.625 L 19.792969 15.625 L 19.792969 11.59375 C 19.871094 10.476562 19.050781 9.496094 17.9375 9.375 L 17.480469 9.375 C 16.363281 9.496094 15.546875 10.476562 15.625 11.59375 L 15.625 23.824219 C 15.546875 24.941406 16.363281 25.921875 17.480469 26.042969 L 17.9375 26.042969 C 19.050781 25.921875 19.871094 24.941406 19.792969 23.824219 L 19.792969 19.792969 L 25 19.792969 L 25 35.417969 C 25.003906 36.898438 25.796875 38.269531 27.082031 39.011719 L 41.667969 47.605469 L 41.667969 57.78125 L 26.90625 67.332031 C 25.71875 68.101562 25 69.417969 25 70.832031 L 25 90.625 L 33.332031 90.625 L 33.332031 73.105469 L 41.667969 67.707031 L 58.332031 67.707031 L 66.667969 73.105469 L 66.667969 90.625 L 75 90.625 L 75 70.832031 C 75 69.417969 74.28125 68.101562 73.09375 67.332031 L 58.332031 57.78125 L 58.332031 47.605469 L 72.917969 39.011719 C 74.203125 38.269531 74.996094 36.898438 75 35.417969 L 75 19.792969 L 80.207031 19.792969 L 80.207031 23.824219 C 80.128906 24.941406 80.949219 25.921875 82.0625 26.042969 L 82.519531 26.042969 C 83.636719 25.921875 84.453125 24.941406 84.375 23.824219 L 84.375 11.59375 C 84.453125 10.476562 83.636719 9.496094 82.519531 9.375 Z M 66.667969 33.03125 L 53.761719 40.625 L 46.238281 40.625 L 33.332031 33.03125 L 33.332031 19.792969 L 66.667969 19.792969 Z M 66.667969 33.03125 "/>
<path style=" stroke:none;fill-rule:nonzero;fill:rgb(9.411765%,10.588235%,13.333333%);fill-opacity:1;" d="M 58.332031 29.167969 C 58.332031 33.769531 54.601562 37.5 50 37.5 C 45.398438 37.5 41.667969 33.769531 41.667969 29.167969 C 41.667969 24.5625 45.398438 20.832031 50 20.832031 C 54.601562 20.832031 58.332031 24.5625 58.332031 29.167969 Z M 58.332031 29.167969 "/>
</g>
</svg>
